<mxfile host="app.diagrams.net" agent="Mozilla/5.0 (Macintosh; Intel Mac OS X 10_15_7) AppleWebKit/537.36 (KHTML, like Gecko) Chrome/135.0.0.0 Safari/537.36" version="27.0.5">
  <diagram name="Page-1" id="aOgyFuMw_JEjIreX88Re">
    <mxGraphModel dx="1689" dy="2897" grid="1" gridSize="10" guides="1" tooltips="1" connect="1" arrows="1" fold="1" page="1" pageScale="1" pageWidth="850" pageHeight="1100" math="0" shadow="0">
      <root>
        <mxCell id="0" />
        <mxCell id="1" parent="0" />
        <mxCell id="VOV3WyJ24jYKWreNuZ23-1" value="&lt;p style=&quot;line-height: 120%;&quot;&gt;&lt;b style=&quot;&quot;&gt;&lt;font style=&quot;font-size: 24px;&quot;&gt;High Level Architecture&lt;/font&gt;&lt;/b&gt;&lt;/p&gt;" style="text;html=1;align=center;verticalAlign=middle;resizable=0;points=[];autosize=1;strokeColor=none;fillColor=none;" parent="1" vertex="1">
          <mxGeometry x="118" y="40" width="290" height="60" as="geometry" />
        </mxCell>
        <mxCell id="VOV3WyJ24jYKWreNuZ23-3" value="" style="rounded=0;whiteSpace=wrap;html=1;fillColor=none;dashed=1;strokeColor=#9f9d9d;" parent="1" vertex="1">
          <mxGeometry x="80" y="200" width="200" height="800" as="geometry" />
        </mxCell>
        <mxCell id="VOV3WyJ24jYKWreNuZ23-4" value="&lt;p&gt;&lt;font style=&quot;font-size: 24px;&quot;&gt;&lt;b&gt;Sources&lt;/b&gt;&lt;/font&gt;&lt;/p&gt;" style="rounded=0;whiteSpace=wrap;html=1;strokeColor=none;" parent="1" vertex="1">
          <mxGeometry x="130" y="180" width="90" height="40" as="geometry" />
        </mxCell>
        <mxCell id="VOV3WyJ24jYKWreNuZ23-6" value="" style="rounded=0;whiteSpace=wrap;html=1;fillColor=none;dashed=1;strokeColor=#9f9d9d;" parent="1" vertex="1">
          <mxGeometry x="360" y="200" width="1040" height="800" as="geometry" />
        </mxCell>
        <mxCell id="VOV3WyJ24jYKWreNuZ23-8" value="&lt;p&gt;&lt;font style=&quot;font-size: 24px;&quot;&gt;Data Warehouse&lt;/font&gt;&lt;/p&gt;" style="rounded=0;whiteSpace=wrap;html=1;strokeColor=none;" parent="1" vertex="1">
          <mxGeometry x="630" y="170" width="90" height="40" as="geometry" />
        </mxCell>
        <mxCell id="VOV3WyJ24jYKWreNuZ23-9" value="" style="rounded=0;whiteSpace=wrap;html=1;fillColor=none;dashed=1;strokeColor=#9f9d9d;" parent="1" vertex="1">
          <mxGeometry x="1480" y="200" width="200" height="800" as="geometry" />
        </mxCell>
        <mxCell id="VOV3WyJ24jYKWreNuZ23-10" value="&lt;p&gt;&lt;font style=&quot;font-size: 24px;&quot;&gt;&lt;b&gt;Consume&lt;/b&gt;&lt;/font&gt;&lt;/p&gt;" style="rounded=0;whiteSpace=wrap;html=1;strokeColor=none;fillColor=default;" parent="1" vertex="1">
          <mxGeometry x="1547.5" y="180" width="65" height="40" as="geometry" />
        </mxCell>
        <mxCell id="VOV3WyJ24jYKWreNuZ23-11" value="&lt;font style=&quot;font-size: 20px;&quot;&gt;Bronze Layer&lt;/font&gt;" style="rounded=0;whiteSpace=wrap;html=1;fillColor=#ffe6cc;strokeColor=#d79b00;" parent="1" vertex="1">
          <mxGeometry x="440" y="240" width="240" height="30" as="geometry" />
        </mxCell>
        <mxCell id="VOV3WyJ24jYKWreNuZ23-12" value="" style="rounded=0;whiteSpace=wrap;html=1;fillColor=none;strokeColor=#d79b00;" parent="1" vertex="1">
          <mxGeometry x="440" y="280" width="240" height="680" as="geometry" />
        </mxCell>
        <mxCell id="VOV3WyJ24jYKWreNuZ23-13" value="&lt;font style=&quot;font-size: 20px;&quot;&gt;Silver Layer&lt;/font&gt;" style="rounded=0;whiteSpace=wrap;html=1;fillColor=#f5f5f5;strokeColor=#666666;fontColor=#333333;" parent="1" vertex="1">
          <mxGeometry x="760" y="240" width="235" height="30" as="geometry" />
        </mxCell>
        <mxCell id="VOV3WyJ24jYKWreNuZ23-14" value="" style="rounded=0;whiteSpace=wrap;html=1;fillColor=none;strokeColor=#666666;fontColor=#333333;" parent="1" vertex="1">
          <mxGeometry x="760" y="280" width="235" height="680" as="geometry" />
        </mxCell>
        <mxCell id="VOV3WyJ24jYKWreNuZ23-17" value="&lt;font style=&quot;font-size: 20px;&quot;&gt;Gold Layer&lt;/font&gt;" style="rounded=0;whiteSpace=wrap;html=1;fillColor=#fff2cc;strokeColor=#d6b656;" parent="1" vertex="1">
          <mxGeometry x="1080" y="240" width="235" height="30" as="geometry" />
        </mxCell>
        <mxCell id="VOV3WyJ24jYKWreNuZ23-18" value="" style="rounded=0;whiteSpace=wrap;html=1;fillColor=none;strokeColor=#d6b656;" parent="1" vertex="1">
          <mxGeometry x="1080" y="280" width="235" height="680" as="geometry" />
        </mxCell>
        <mxCell id="VOV3WyJ24jYKWreNuZ23-19" value="&lt;font style=&quot;font-size: 20px;&quot;&gt;CRM&lt;/font&gt;" style="image;aspect=fixed;html=1;points=[];align=center;fontSize=12;image=img/lib/azure2/general/Folder_Blank.svg;" parent="1" vertex="1">
          <mxGeometry x="119.55" y="280" width="110.89" height="90" as="geometry" />
        </mxCell>
        <mxCell id="VOV3WyJ24jYKWreNuZ23-22" value="" style="image;aspect=fixed;html=1;points=[];align=center;fontSize=12;image=img/lib/azure2/general/File.svg;" parent="1" vertex="1">
          <mxGeometry x="200" y="330" width="40.58" height="50" as="geometry" />
        </mxCell>
        <mxCell id="VOV3WyJ24jYKWreNuZ23-25" value="&lt;font style=&quot;font-size: 20px;&quot;&gt;ERP&lt;/font&gt;" style="image;aspect=fixed;html=1;points=[];align=center;fontSize=12;image=img/lib/azure2/general/Folder_Blank.svg;" parent="1" vertex="1">
          <mxGeometry x="119.55" y="445" width="110.89" height="90" as="geometry" />
        </mxCell>
        <mxCell id="VOV3WyJ24jYKWreNuZ23-26" value="" style="image;aspect=fixed;html=1;points=[];align=center;fontSize=12;image=img/lib/azure2/general/File.svg;" parent="1" vertex="1">
          <mxGeometry x="200" y="495" width="40.58" height="50" as="geometry" />
        </mxCell>
        <mxCell id="VOV3WyJ24jYKWreNuZ23-29" value="" style="endArrow=none;html=1;rounded=0;exitX=0.15;exitY=0.714;exitDx=0;exitDy=0;exitPerimeter=0;entryX=0.85;entryY=0.714;entryDx=0;entryDy=0;entryPerimeter=0;elbow=vertical;" parent="1" edge="1">
          <mxGeometry width="50" height="50" relative="1" as="geometry">
            <mxPoint x="110" y="599.4999999999998" as="sourcePoint" />
            <mxPoint x="250" y="599.4999999999998" as="targetPoint" />
          </mxGeometry>
        </mxCell>
        <mxCell id="VOV3WyJ24jYKWreNuZ23-30" value="&lt;font style=&quot;font-size: 18px;&quot;&gt;&lt;b&gt;Object Type :&lt;/b&gt; CSV files&lt;/font&gt;&lt;div&gt;&lt;span style=&quot;font-size: 18px;&quot;&gt;&lt;br&gt;&lt;/span&gt;&lt;div style=&quot;font-size: 18px;&quot;&gt;&lt;font style=&quot;font-size: 18px;&quot;&gt;&lt;b&gt;Interface :&lt;/b&gt; Files in folder&lt;/font&gt;&lt;/div&gt;&lt;/div&gt;" style="text;html=1;align=center;verticalAlign=middle;whiteSpace=wrap;rounded=0;" parent="1" vertex="1">
          <mxGeometry x="80" y="660" width="200" height="30" as="geometry" />
        </mxCell>
        <mxCell id="AT1TFjK6RzU4egqSK6z--1" value="" style="html=1;verticalLabelPosition=bottom;align=center;labelBackgroundColor=#ffffff;verticalAlign=top;strokeWidth=2;strokeColor=#d79b00;shadow=0;dashed=0;shape=mxgraph.ios7.icons.data;fillColor=#ffe6cc;" parent="1" vertex="1">
          <mxGeometry x="529" y="375" width="62" height="70" as="geometry" />
        </mxCell>
        <mxCell id="AT1TFjK6RzU4egqSK6z--2" value="" style="html=1;verticalLabelPosition=bottom;align=center;labelBackgroundColor=#ffffff;verticalAlign=top;strokeWidth=2;strokeColor=#666666;shadow=0;dashed=0;shape=mxgraph.ios7.icons.data;fillColor=#f5f5f5;fontColor=#333333;" parent="1" vertex="1">
          <mxGeometry x="850" y="370" width="60" height="70" as="geometry" />
        </mxCell>
        <mxCell id="AT1TFjK6RzU4egqSK6z--3" value="" style="html=1;verticalLabelPosition=bottom;align=center;labelBackgroundColor=#ffffff;verticalAlign=top;strokeWidth=2;strokeColor=#d6b656;shadow=0;dashed=0;shape=mxgraph.ios7.icons.data;fillColor=#fff2cc;" parent="1" vertex="1">
          <mxGeometry x="1169.88" y="370" width="60.12" height="70" as="geometry" />
        </mxCell>
        <mxCell id="AT1TFjK6RzU4egqSK6z--4" value="" style="shape=singleArrow;whiteSpace=wrap;html=1;fillColor=#dae8fc;strokeColor=#6c8ebf;" parent="1" vertex="1">
          <mxGeometry x="260" y="400" width="120" height="60" as="geometry" />
        </mxCell>
        <mxCell id="AT1TFjK6RzU4egqSK6z--5" value="" style="shape=singleArrow;whiteSpace=wrap;html=1;fillColor=#dae8fc;strokeColor=#6c8ebf;" parent="1" vertex="1">
          <mxGeometry x="660" y="400" width="110" height="60" as="geometry" />
        </mxCell>
        <mxCell id="4abrOTbEtGA8ZfhsAUjP-1" value="" style="shape=singleArrow;whiteSpace=wrap;html=1;fillColor=#dae8fc;strokeColor=#6c8ebf;" vertex="1" parent="1">
          <mxGeometry x="980" y="400" width="110" height="60" as="geometry" />
        </mxCell>
        <mxCell id="4abrOTbEtGA8ZfhsAUjP-2" value="" style="shape=singleArrow;whiteSpace=wrap;html=1;fillColor=#dae8fc;strokeColor=#6c8ebf;" vertex="1" parent="1">
          <mxGeometry x="1300" y="410" width="110" height="60" as="geometry" />
        </mxCell>
        <mxCell id="4abrOTbEtGA8ZfhsAUjP-3" value="&lt;font style=&quot;font-size: 17px;&quot;&gt;Raw Data&lt;/font&gt;" style="text;html=1;align=center;verticalAlign=middle;whiteSpace=wrap;rounded=0;" vertex="1" parent="1">
          <mxGeometry x="519.5" y="460" width="81" height="30" as="geometry" />
        </mxCell>
        <mxCell id="4abrOTbEtGA8ZfhsAUjP-4" value="&lt;font style=&quot;font-size: 17px;&quot;&gt;Cleaned, Standardized Data&lt;/font&gt;" style="text;html=1;align=center;verticalAlign=middle;whiteSpace=wrap;rounded=0;" vertex="1" parent="1">
          <mxGeometry x="799.88" y="460" width="160.25" height="30" as="geometry" />
        </mxCell>
        <mxCell id="4abrOTbEtGA8ZfhsAUjP-5" value="&lt;font style=&quot;font-size: 17px;&quot;&gt;Business Ready Data&lt;/font&gt;" style="text;html=1;align=center;verticalAlign=middle;whiteSpace=wrap;rounded=0;" vertex="1" parent="1">
          <mxGeometry x="1119.82" y="460" width="160.25" height="30" as="geometry" />
        </mxCell>
        <mxCell id="4abrOTbEtGA8ZfhsAUjP-8" value="" style="endArrow=none;html=1;rounded=0;exitX=0.083;exitY=0.556;exitDx=0;exitDy=0;exitPerimeter=0;entryX=0.917;entryY=0.556;entryDx=0;entryDy=0;entryPerimeter=0;elbow=vertical;fillColor=#ffe6cc;strokeColor=#d79b00;" edge="1" parent="1">
          <mxGeometry width="50" height="50" relative="1" as="geometry">
            <mxPoint x="459.83999999999986" y="518.7499999999999" as="sourcePoint" />
            <mxPoint x="659.9999999999999" y="518.7499999999999" as="targetPoint" />
          </mxGeometry>
        </mxCell>
        <mxCell id="4abrOTbEtGA8ZfhsAUjP-9" value="" style="endArrow=none;html=1;rounded=0;exitX=0.083;exitY=0.556;exitDx=0;exitDy=0;exitPerimeter=0;entryX=0.917;entryY=0.556;entryDx=0;entryDy=0;entryPerimeter=0;elbow=vertical;fillColor=#f5f5f5;strokeColor=#666666;" edge="1" parent="1">
          <mxGeometry width="50" height="50" relative="1" as="geometry">
            <mxPoint x="780" y="519.23" as="sourcePoint" />
            <mxPoint x="980" y="519.23" as="targetPoint" />
          </mxGeometry>
        </mxCell>
        <mxCell id="4abrOTbEtGA8ZfhsAUjP-10" value="" style="endArrow=none;html=1;rounded=0;exitX=0.083;exitY=0.556;exitDx=0;exitDy=0;exitPerimeter=0;entryX=0.917;entryY=0.556;entryDx=0;entryDy=0;entryPerimeter=0;elbow=vertical;fillColor=#fff2cc;strokeColor=#d6b656;" edge="1" parent="1">
          <mxGeometry width="50" height="50" relative="1" as="geometry">
            <mxPoint x="1099.94" y="519.23" as="sourcePoint" />
            <mxPoint x="1299.94" y="519.23" as="targetPoint" />
          </mxGeometry>
        </mxCell>
        <mxCell id="4abrOTbEtGA8ZfhsAUjP-12" value="&lt;font style=&quot;font-size: 18px;&quot;&gt;&lt;b&gt;Object Type :&lt;/b&gt;&amp;nbsp;Tables&lt;/font&gt;&lt;div&gt;&lt;span style=&quot;font-size: 18px;&quot;&gt;&lt;br&gt;&lt;/span&gt;&lt;div style=&quot;font-size: 18px;&quot;&gt;&lt;font style=&quot;font-size: 18px;&quot;&gt;&lt;b&gt;Load :&lt;/b&gt;&amp;nbsp;&lt;/font&gt;&lt;/div&gt;&lt;div style=&quot;font-size: 18px;&quot;&gt;&lt;ul&gt;&lt;li&gt;&lt;span style=&quot;background-color: transparent; color: light-dark(rgb(0, 0, 0), rgb(255, 255, 255));&quot;&gt;Batch Processing&lt;/span&gt;&lt;/li&gt;&lt;li&gt;Full Load (Trunc &amp;amp; Insert)&lt;/li&gt;&lt;/ul&gt;&lt;span style=&quot;background-color: transparent; color: light-dark(rgb(0, 0, 0), rgb(255, 255, 255));&quot;&gt;No Transformations&lt;/span&gt;&lt;/div&gt;&lt;div style=&quot;font-size: 18px;&quot;&gt;&lt;span style=&quot;background-color: transparent; color: light-dark(rgb(0, 0, 0), rgb(255, 255, 255));&quot;&gt;&lt;b&gt;Data Model :&lt;/b&gt; None (As-is)&amp;nbsp;&lt;/span&gt;&lt;/div&gt;&lt;/div&gt;" style="text;html=1;align=left;verticalAlign=middle;whiteSpace=wrap;rounded=0;" vertex="1" parent="1">
          <mxGeometry x="460" y="640" width="200" height="30" as="geometry" />
        </mxCell>
        <mxCell id="4abrOTbEtGA8ZfhsAUjP-14" value="&lt;font style=&quot;font-size: 18px;&quot;&gt;&lt;b&gt;Object Type :&lt;/b&gt;&amp;nbsp;Tables&lt;/font&gt;&lt;div&gt;&lt;span style=&quot;font-size: 18px;&quot;&gt;&lt;br&gt;&lt;/span&gt;&lt;div style=&quot;font-size: 18px;&quot;&gt;&lt;font style=&quot;font-size: 18px;&quot;&gt;&lt;b&gt;Load :&lt;/b&gt;&amp;nbsp;&lt;/font&gt;&lt;/div&gt;&lt;div style=&quot;font-size: 18px;&quot;&gt;&lt;ul&gt;&lt;li&gt;&lt;span style=&quot;background-color: transparent; color: light-dark(rgb(0, 0, 0), rgb(255, 255, 255));&quot;&gt;Batch Processing&lt;/span&gt;&lt;/li&gt;&lt;li&gt;Full Load (Trunc &amp;amp; Insert)&lt;/li&gt;&lt;/ul&gt;&lt;span style=&quot;background-color: transparent; color: light-dark(rgb(0, 0, 0), rgb(255, 255, 255));&quot;&gt;&lt;b&gt;Transformations :&amp;nbsp;&lt;/b&gt;&lt;/span&gt;&lt;/div&gt;&lt;div style=&quot;font-size: 18px;&quot;&gt;&lt;ul&gt;&lt;li&gt;&lt;span style=&quot;background-color: transparent; color: light-dark(rgb(0, 0, 0), rgb(255, 255, 255));&quot;&gt;Data Cleaning&lt;/span&gt;&lt;/li&gt;&lt;li&gt;&lt;span style=&quot;background-color: transparent; color: light-dark(rgb(0, 0, 0), rgb(255, 255, 255));&quot;&gt;Data Standerdization&lt;/span&gt;&lt;/li&gt;&lt;li&gt;&lt;span style=&quot;background-color: transparent; color: light-dark(rgb(0, 0, 0), rgb(255, 255, 255));&quot;&gt;Data Normalization&amp;nbsp;&lt;/span&gt;&lt;/li&gt;&lt;li&gt;&lt;span style=&quot;background-color: transparent; color: light-dark(rgb(0, 0, 0), rgb(255, 255, 255));&quot;&gt;Derived Columns&lt;/span&gt;&lt;/li&gt;&lt;li&gt;Data Enrichment&lt;/li&gt;&lt;/ul&gt;&lt;/div&gt;&lt;div style=&quot;font-size: 18px;&quot;&gt;&lt;span style=&quot;background-color: transparent; color: light-dark(rgb(0, 0, 0), rgb(255, 255, 255));&quot;&gt;&lt;b&gt;Data Model :&lt;/b&gt; None (As-is)&amp;nbsp;&lt;/span&gt;&lt;/div&gt;&lt;/div&gt;" style="text;html=1;align=left;verticalAlign=middle;whiteSpace=wrap;rounded=0;" vertex="1" parent="1">
          <mxGeometry x="770" y="700" width="220" height="30" as="geometry" />
        </mxCell>
        <mxCell id="4abrOTbEtGA8ZfhsAUjP-15" value="&lt;font style=&quot;font-size: 18px;&quot;&gt;&lt;b&gt;Object Type :&lt;/b&gt;&amp;nbsp;Tables&lt;/font&gt;&lt;div&gt;&lt;span style=&quot;font-size: 18px;&quot;&gt;&lt;br&gt;&lt;/span&gt;&lt;div&gt;&lt;span style=&quot;font-size: 18px; background-color: transparent; color: light-dark(rgb(0, 0, 0), rgb(255, 255, 255));&quot;&gt;No Load&lt;/span&gt;&lt;/div&gt;&lt;div&gt;&lt;span style=&quot;font-size: 18px;&quot;&gt;&lt;br&gt;&lt;/span&gt;&lt;div&gt;&lt;div style=&quot;font-size: 18px;&quot;&gt;&lt;span style=&quot;background-color: transparent; color: light-dark(rgb(0, 0, 0), rgb(255, 255, 255));&quot;&gt;&lt;b&gt;Transformations :&amp;nbsp;&lt;/b&gt;&lt;/span&gt;&lt;/div&gt;&lt;div style=&quot;font-size: 18px;&quot;&gt;&lt;ul&gt;&lt;li&gt;&lt;span style=&quot;background-color: transparent; color: light-dark(rgb(0, 0, 0), rgb(255, 255, 255));&quot;&gt;Data Integration&lt;/span&gt;&lt;/li&gt;&lt;li&gt;&lt;span style=&quot;background-color: transparent; color: light-dark(rgb(0, 0, 0), rgb(255, 255, 255));&quot;&gt;Aggregations&lt;/span&gt;&lt;/li&gt;&lt;li&gt;&lt;span style=&quot;background-color: transparent; color: light-dark(rgb(0, 0, 0), rgb(255, 255, 255));&quot;&gt;Business logics&lt;/span&gt;&lt;/li&gt;&lt;/ul&gt;&lt;/div&gt;&lt;div style=&quot;font-size: 18px;&quot;&gt;&lt;span style=&quot;background-color: transparent; color: light-dark(rgb(0, 0, 0), rgb(255, 255, 255));&quot;&gt;&lt;b&gt;Data Model :&lt;/b&gt;&amp;nbsp;&lt;/span&gt;&lt;/div&gt;&lt;/div&gt;&lt;/div&gt;&lt;/div&gt;&lt;div style=&quot;font-size: 18px;&quot;&gt;&lt;ul&gt;&lt;li&gt;&lt;span style=&quot;background-color: transparent; color: light-dark(rgb(0, 0, 0), rgb(255, 255, 255));&quot;&gt;Star Schema&lt;/span&gt;&lt;/li&gt;&lt;li&gt;&lt;span style=&quot;background-color: transparent; color: light-dark(rgb(0, 0, 0), rgb(255, 255, 255));&quot;&gt;Flat Table&lt;/span&gt;&lt;/li&gt;&lt;li&gt;&lt;span style=&quot;background-color: transparent; color: light-dark(rgb(0, 0, 0), rgb(255, 255, 255));&quot;&gt;Aggregated Table&lt;/span&gt;&lt;/li&gt;&lt;/ul&gt;&lt;/div&gt;" style="text;html=1;align=left;verticalAlign=middle;whiteSpace=wrap;rounded=0;" vertex="1" parent="1">
          <mxGeometry x="1090" y="690" width="200" height="30" as="geometry" />
        </mxCell>
        <mxCell id="4abrOTbEtGA8ZfhsAUjP-16" value="" style="image;aspect=fixed;html=1;points=[];align=center;fontSize=12;image=img/lib/azure2/analytics/Power_BI_Embedded.svg;" vertex="1" parent="1">
          <mxGeometry x="1554.5" y="372" width="51" height="68" as="geometry" />
        </mxCell>
        <mxCell id="4abrOTbEtGA8ZfhsAUjP-17" value="" style="shape=image;html=1;verticalAlign=top;verticalLabelPosition=bottom;labelBackgroundColor=#ffffff;imageAspect=0;aspect=fixed;image=https://cdn2.iconfinder.com/data/icons/seo-web-1-filled-outline/64/search_analytics-seo_marketing-seo_monitoring-128.png" vertex="1" parent="1">
          <mxGeometry x="1516" y="545" width="128" height="128" as="geometry" />
        </mxCell>
        <mxCell id="4abrOTbEtGA8ZfhsAUjP-18" value="" style="points=[];aspect=fixed;html=1;align=center;shadow=0;dashed=0;fillColor=#FF6A00;strokeColor=none;shape=mxgraph.alibaba_cloud.machine_learning;" vertex="1" parent="1">
          <mxGeometry x="1555.1" y="790" width="49.8" height="50.099999999999994" as="geometry" />
        </mxCell>
        <mxCell id="4abrOTbEtGA8ZfhsAUjP-19" value="&lt;font style=&quot;font-size: 20px;&quot;&gt;BI &amp;amp; Reporting&lt;/font&gt;" style="text;html=1;align=center;verticalAlign=middle;whiteSpace=wrap;rounded=0;" vertex="1" parent="1">
          <mxGeometry x="1510" y="445" width="140" height="30" as="geometry" />
        </mxCell>
        <mxCell id="4abrOTbEtGA8ZfhsAUjP-20" value="&lt;font style=&quot;font-size: 20px;&quot;&gt;Ad-Hoc&amp;nbsp;&lt;/font&gt;&lt;div&gt;&lt;font style=&quot;font-size: 20px;&quot;&gt;SQL Queries&lt;/font&gt;&lt;/div&gt;" style="text;html=1;align=center;verticalAlign=middle;whiteSpace=wrap;rounded=0;" vertex="1" parent="1">
          <mxGeometry x="1510" y="670" width="140" height="30" as="geometry" />
        </mxCell>
        <mxCell id="4abrOTbEtGA8ZfhsAUjP-21" value="&lt;font style=&quot;font-size: 20px;&quot;&gt;Machine Learning&lt;/font&gt;" style="text;html=1;align=center;verticalAlign=middle;whiteSpace=wrap;rounded=0;" vertex="1" parent="1">
          <mxGeometry x="1500" y="850" width="164" height="30" as="geometry" />
        </mxCell>
        <mxCell id="4abrOTbEtGA8ZfhsAUjP-22" value="" style="sketch=0;outlineConnect=0;fontColor=#232F3E;gradientColor=none;fillColor=#C925D1;strokeColor=none;dashed=0;verticalLabelPosition=bottom;verticalAlign=top;align=center;html=1;fontSize=12;fontStyle=0;aspect=fixed;pointerEvents=1;shape=mxgraph.aws4.rds_sql_server_instance;" vertex="1" parent="1">
          <mxGeometry x="362" y="122" width="78" height="78" as="geometry" />
        </mxCell>
      </root>
    </mxGraphModel>
  </diagram>
</mxfile>
